<?xml version="1.0" encoding="UTF-8"?>
<svg width="97" height="22" viewBox="0 0 97 22" fill="none" xmlns="http://www.w3.org/2000/svg">
<path d="M41.6242 18.7942L42.4623 16.362V5.08563H31.7343V18.8494H29.8904V3.4826H44.362V16.362L43.5239 18.7942H41.6242ZM41.9594 17.1912H40.786C40.5625 16.7489 40.3949 16.2515 40.2273 15.754C40.0597 15.2565 39.8362 14.7037 39.6685 14.151C39.5009 14.7037 39.2774 15.2012 39.1098 15.754C38.9422 16.2515 38.7187 16.7489 38.551 17.1912H35.7573C35.5896 16.7489 35.3661 16.2515 35.1985 15.754C35.0309 15.2565 34.8074 14.7037 34.6398 14.151C34.4163 14.7037 34.2486 15.2565 34.0251 15.754C33.8575 16.2515 33.634 16.7489 33.4664 17.1912H31.9578C32.293 16.4173 32.6283 15.5329 32.9635 14.6484C33.2988 13.764 33.634 12.8243 33.9134 11.9399C33.5781 10.9449 33.2988 9.89467 32.9635 8.89969C32.6841 7.90472 32.4048 6.90975 32.2371 6.02532H33.6899C33.8016 6.57809 33.9693 7.13085 34.1369 7.73889C34.3045 8.34693 34.4721 8.95497 34.6956 9.61829C34.9191 8.95497 35.0868 8.29166 35.2544 7.68361C35.422 7.07557 35.5338 6.52281 35.6455 6.02532H37.0424C36.8748 6.85447 36.6513 7.73889 36.3719 8.78914C36.0925 9.83939 35.7573 10.8344 35.422 11.9399C35.7014 12.8243 35.9808 13.6535 36.316 14.4826C36.5954 15.3118 36.9306 16.0856 37.21 16.8595C37.4894 16.0856 37.8247 15.3118 38.104 14.4826C38.3834 13.6535 38.6628 12.8243 38.9422 11.9952C38.6069 11.0002 38.3275 9.94995 37.9923 8.95497C37.7129 7.96 37.4335 6.96502 37.21 6.0806H38.6069C38.7187 6.63337 38.8863 7.2414 39.0539 7.79417C39.2215 8.40221 39.3892 9.01025 39.6127 9.67357C39.8362 8.95498 40.0038 8.34693 40.1714 7.73889C40.339 7.13085 40.4508 6.57809 40.5625 6.0806H42.0153C41.8477 6.90975 41.6242 7.84944 41.3448 8.89969C41.0654 9.94995 40.786 11.0002 40.3949 12.1057C40.6743 12.9349 40.9537 13.764 41.2889 14.5932C41.5683 15.4223 41.9035 16.1962 42.1829 16.9148L41.9594 17.1912Z" fill="white"/>
<path d="M45.9823 15.035C46.5411 14.2058 47.0998 13.3767 47.5468 12.4923C47.9938 11.6078 48.3849 10.7787 48.6643 9.94956H47.5468V3.42694H60.5657V9.94956H50.5082C50.4523 10.1707 50.3964 10.3918 50.2847 10.5576C50.2288 10.7787 50.1171 10.9445 50.0612 11.1656H60.901V16.8038L60.0628 18.8491H58.1631L59.0012 16.8591V12.6581H57.2132C56.9338 13.8742 56.5427 14.9797 56.0957 16.03C55.5928 17.0802 55.0341 18.0199 54.4195 18.7938H52.0168C52.8549 17.8541 53.5813 16.9144 54.1401 15.8641C54.6988 14.8139 55.1458 13.7636 55.4252 12.6028H53.3019C52.8549 13.8189 52.3521 14.9244 51.6816 15.9747C51.0111 17.0249 50.2847 17.9646 49.5024 18.7385H46.9881C47.9938 17.8541 48.8319 16.8591 49.6142 15.8088C50.3406 14.7586 50.9552 13.7083 51.4022 12.6028H49.5024C49.0554 13.4872 48.6084 14.3164 48.1056 14.9797H45.9823V15.035ZM49.4466 6.02493H58.6101V4.80885H49.4466V6.02493ZM58.6101 7.29629H49.4466V8.56765H58.6101V7.29629Z" fill="white"/>
<path d="M62.9125 15.035C63.4712 14.2058 64.03 13.3767 64.477 12.4923C64.924 11.6078 65.3151 10.7787 65.5945 9.94956H64.477V3.42694H77.5518V9.94956H67.4942C67.4384 10.1707 67.3825 10.3918 67.2707 10.5576C67.2149 10.7787 67.1031 10.9445 67.0472 11.1656H77.887V16.8038L77.0489 18.8491H75.1491L75.9873 16.8591V12.6581H74.1434C73.864 13.8742 73.4729 14.9797 73.0259 16.03C72.523 17.0802 71.9643 18.0199 71.3496 18.7938H68.947C69.7851 17.8541 70.5115 16.9144 71.0703 15.8641C71.629 14.8139 72.076 13.7636 72.3554 12.6028H70.2321C69.7851 13.8189 69.2822 14.9244 68.6117 15.9747C67.9412 17.0249 67.2149 17.9646 66.4326 18.7385H63.9182C64.924 17.8541 65.7621 16.8591 66.5444 15.8088C67.2707 14.7586 67.8854 13.7083 68.3324 12.6028H66.4326C65.9856 13.4872 65.5386 14.3164 65.0357 14.9797H62.9125V15.035ZM66.3767 6.02493H75.5403V4.80885H66.3767V6.02493ZM75.5403 7.29629H66.3767V8.56765H75.5403V7.29629Z" fill="white"/>
<path d="M88.9503 8.73371C89.2856 7.73874 89.5649 6.68849 89.7884 5.74879C90.0119 4.75381 90.1796 3.86939 90.2354 3.09552H91.9676C91.9117 3.31663 91.9117 3.53773 91.8558 3.75884C91.7999 3.97994 91.7999 4.20105 91.7441 4.42216H96.6052V5.96989H95.7671C95.6553 7.40708 95.4318 8.78899 95.0966 10.1156C94.7613 11.4423 94.3702 12.6583 93.9232 13.8191C94.3143 14.7588 94.7613 15.588 95.2083 16.4724C95.6553 17.3016 96.1023 18.1307 96.5493 18.9046H94.5937C94.0349 18.0202 93.5321 17.0252 93.0292 15.9196C92.7498 16.5277 92.4146 17.0804 92.1352 17.5779C91.8558 18.0754 91.5206 18.5176 91.2412 18.9598H86.7712C86.5477 18.7387 86.2683 18.5176 85.9889 18.3518C85.7095 18.1307 85.4861 17.9096 85.2067 17.7438C84.6479 18.2413 84.0892 18.6282 83.4745 19.0151H80.6808C81.2954 18.6282 81.8542 18.2965 82.4129 17.9096C82.9158 17.5227 83.4187 17.191 83.9215 16.8041C83.5304 16.5277 83.1393 16.2513 82.6923 15.9749C82.3012 15.6985 81.8542 15.4222 81.4072 15.1458C81.5189 14.9247 81.6307 14.6483 81.7424 14.4272C81.8542 14.1508 81.9659 13.9297 82.0777 13.6533H80.6808V12.2161H82.5805C82.6923 11.8845 82.7482 11.6081 82.8599 11.3317H84.7038C84.6479 11.4975 84.592 11.6634 84.592 11.7739C84.5362 11.9397 84.4803 12.0503 84.4244 12.2161H89.2856C89.0062 12.99 88.5592 13.7639 88.0563 14.5377C87.5534 15.3116 86.9388 16.0302 86.3242 16.6935C86.7712 17.0252 87.2182 17.4121 87.7211 17.7438C88.1681 18.1307 88.6709 18.5176 89.1738 18.9598C89.7326 18.186 90.2913 17.4121 90.7942 16.583C91.2971 15.7538 91.7441 14.8694 92.1352 13.9297C91.8558 13.1558 91.5764 12.3267 91.3529 11.4975C91.1294 10.6684 90.9059 9.78396 90.6824 8.89954H88.9503V8.73371ZM84.2009 6.13572V3.09552H85.8213V6.13572H89.1738V7.57291H85.8213V10.9448H84.2009V7.57291H80.8484V6.13572H84.2009ZM80.9043 10.9448C81.1278 10.3367 81.2954 9.83924 81.4072 9.34175C81.5189 8.84427 81.6307 8.40205 81.6865 7.90457H83.3628C83.3069 8.40205 83.1952 8.89955 83.0834 9.39703C82.9717 9.9498 82.804 10.4473 82.6923 10.8895H80.9043V10.9448ZM81.7983 5.74879C81.7424 5.52768 81.7424 5.36185 81.6865 5.14075C81.6307 4.91964 81.5748 4.69854 81.5189 4.47743C81.463 4.25632 81.4072 4.03522 81.3513 3.81411C81.2954 3.59301 81.2395 3.42718 81.1837 3.26135H82.8599C82.9717 3.53773 83.0834 3.92467 83.1952 4.42216C83.3069 4.86437 83.4187 5.36186 83.4745 5.80407H81.7983V5.74879ZM83.9215 13.4875C83.8657 13.6533 83.7539 13.8744 83.698 14.0402C83.6422 14.2061 83.5304 14.3719 83.4745 14.5377C83.7539 14.7036 84.0333 14.8694 84.2568 15.0352C84.5362 15.2011 84.8155 15.3669 85.039 15.588C85.3743 15.2563 85.6537 14.9247 85.933 14.593C86.2124 14.2614 86.4359 13.8744 86.6594 13.5428H83.9215V13.4875ZM87.1623 10.9448C86.9947 10.5026 86.8829 10.0603 86.7712 9.50759C86.6594 8.95482 86.5477 8.45733 86.4918 7.95985H88.1681C88.2239 8.40206 88.3357 8.89954 88.4474 9.45231C88.5592 10.0051 88.7268 10.5026 88.9503 11H87.1623V10.9448ZM86.5477 5.74879C86.6594 5.30658 86.7712 4.86437 86.8271 4.42216C86.9388 3.97995 86.9947 3.59301 87.0505 3.26135H88.7827C88.7827 3.42718 88.7268 3.59301 88.6709 3.81411C88.615 4.03522 88.5592 4.25632 88.5592 4.47743C88.5033 4.69854 88.4474 4.91964 88.3915 5.14075C88.3357 5.36185 88.2798 5.58296 88.2239 5.74879H86.5477ZM92.9733 11.4423C93.2527 10.6131 93.4762 9.72869 93.6997 8.84427C93.9232 7.95985 94.035 6.96487 94.2026 5.96989H91.6882C91.8558 6.96487 92.0234 7.95985 92.2469 8.84427C92.4704 9.72869 92.6939 10.5578 92.9733 11.4423Z" fill="white"/>
<path d="M5.02589 22V16.8593H7.31677V19.7889H11.8427C16.8714 19.7889 20.8944 15.8643 20.8944 11C20.8944 6.13568 16.8155 2.21106 11.8427 2.21106H7.31677V11H9.44002V13.2111H5.02589V0H11.8427C18.1007 0 23.1853 4.9196 23.1853 11C23.1853 17.0804 18.1007 22 11.8427 22H5.02589ZM0.5 17.5779V4.36683H2.79088V15.3668H11.8427C14.357 15.3668 16.3685 13.3769 16.3685 10.9447C16.3685 8.51256 14.357 6.52261 11.8427 6.52261H9.55177V4.31155H11.8427C15.5863 4.31155 18.6594 7.29648 18.6594 10.8894C18.6594 14.5377 15.5863 17.4673 11.8427 17.4673H0.5V17.5779Z" fill="white"/>
</svg>
