<svg width="208" height="142" viewBox="0 0 208 142" fill="none" xmlns="http://www.w3.org/2000/svg">
<path fill-rule="evenodd" clip-rule="evenodd" d="M207.98 142C207.993 141.667 208 141.334 208 141C208 113.386 161.438 91 104 91C46.5624 91 0 113.386 0 141C0 141.334 0.00681624 141.667 0.0203855 142H207.98Z" fill="url(#paint0_linear)"/>
<path opacity="0.5" fill-rule="evenodd" clip-rule="evenodd" d="M174.495 64.7646C174.197 64.4858 173.771 64.3845 173.381 64.5051C172.351 64.8241 171.257 64.9959 170.122 64.9959C168.465 64.9959 166.893 64.6294 165.483 63.9732C165.028 63.7611 164.481 63.8757 164.142 64.247C162.456 66.094 160.03 67.2529 157.332 67.2529C152.242 67.2529 148.116 63.1266 148.116 58.0366C148.116 52.9466 152.242 48.8204 157.332 48.8204C158.02 48.8204 158.69 48.8957 159.335 49.0386C159.825 49.1473 160.339 48.9274 160.59 48.4928C162.492 45.2031 166.049 42.9897 170.122 42.9897C174.107 42.9897 177.598 45.1085 179.528 48.2811C179.74 48.6289 180.126 48.8353 180.533 48.824C180.62 48.8216 180.707 48.8204 180.794 48.8204C185.884 48.8204 190.01 52.9466 190.01 58.0366C190.01 63.1266 185.884 67.2529 180.794 67.2529C178.358 67.2529 176.143 66.308 174.495 64.7646Z" fill="url(#paint1_linear)"/>
<path opacity="0.5" fill-rule="evenodd" clip-rule="evenodd" d="M53.2022 30.6522C52.8953 30.3835 52.4705 30.2822 52.0776 30.3917C51.4329 30.5714 50.7533 30.6675 50.0513 30.6675C49.0154 30.6675 48.0283 30.4583 47.13 30.0799C46.6669 29.8848 46.1217 29.9995 45.767 30.3556C44.6248 31.5025 43.0442 32.2122 41.2977 32.2122C37.814 32.2122 34.9899 29.3882 34.9899 25.9045C34.9899 22.4208 37.814 19.5967 41.2977 19.5967C41.6727 19.5967 42.04 19.6294 42.397 19.6922C42.8915 19.7791 43.4033 19.5605 43.6705 19.1354C45.0028 17.0153 47.3625 15.6061 50.0513 15.6061C52.715 15.6061 55.0557 16.9891 56.3945 19.0762C56.6033 19.4016 56.9686 19.5967 57.3552 19.5967C60.8389 19.5967 63.663 22.4208 63.663 25.9045C63.663 29.3882 60.8389 32.2122 57.3552 32.2122C55.7647 32.2122 54.3117 31.6236 53.2022 30.6522Z" fill="url(#paint2_linear)"/>
<g filter="url(#filter0_f)">
<ellipse cx="105" cy="119.5" rx="40" ry="4" fill="url(#paint3_radial)"/>
</g>
<path d="M59 36C59 33.7909 60.7909 32 63 32H146C148.209 32 150 33.7909 150 36V95C150 97.2091 148.209 99 146 99H63C60.7909 99 59 97.2091 59 95V36Z" fill="url(#paint4_linear)"/>
<path d="M59 43H150V99C150 101.209 148.209 103 146 103H63C60.7909 103 59 101.209 59 99V43Z" fill="url(#paint5_linear)"/>
<path fill-rule="evenodd" clip-rule="evenodd" d="M50 77C49.4477 77 49 77.4477 49 78V80H47C46.4477 80 46 80.4477 46 81C46 81.5523 46.4477 82 47 82H49V84C49 84.5523 49.4477 85 50 85C50.5523 85 51 84.5523 51 84V82H53C53.5523 82 54 81.5523 54 81C54 80.4477 53.5523 80 53 80H51V78C51 77.4477 50.5523 77 50 77Z" fill="#7A9DFD"/>
<path fill-rule="evenodd" clip-rule="evenodd" d="M160 88C159.448 88 159 88.4477 159 89V91H157C156.448 91 156 91.4477 156 92C156 92.5523 156.448 93 157 93H159V95C159 95.5523 159.448 96 160 96C160.552 96 161 95.5523 161 95V93H163C163.552 93 164 92.5523 164 92C164 91.4477 163.552 91 163 91H161V89C161 88.4477 160.552 88 160 88Z" fill="#7A9DFD"/>
<circle cx="38" cy="64" r="3" stroke="#8FB0FE" stroke-width="2"/>
<circle cx="159" cy="20" r="3" stroke="#B5BCF6" stroke-opacity="0.4" stroke-width="2"/>
<ellipse cx="142" cy="37.5" rx="2" ry="2.5" fill="url(#paint6_linear)"/>
<ellipse cx="134" cy="37.5" rx="2" ry="2.5" fill="url(#paint7_linear)"/>
<circle cx="125.5" cy="37.5" r="2.5" fill="url(#paint8_linear)"/>
<path d="M103.257 22.6231C102.931 22.1772 103.029 21.5515 103.475 21.2256L105.933 19.4286C106.379 19.1027 107.005 19.1999 107.331 19.6458L109.723 22.9193C110.049 23.3652 109.952 23.9908 109.506 24.3167L107.047 26.1138C106.601 26.4397 105.976 26.3424 105.65 25.8965L103.257 22.6231Z" fill="url(#paint9_linear)"/>
<rect x="97.2979" y="21.4205" width="19.2836" height="5.04548" rx="1" transform="rotate(-36.1627 97.2979 21.4205)" fill="url(#paint10_linear)"/>
<path fill-rule="evenodd" clip-rule="evenodd" d="M111.224 13.9719C113.915 17.6542 119.082 18.4575 122.764 15.7661C126.447 13.0748 127.25 7.90793 124.559 4.22564C121.867 0.543348 116.7 -0.259971 113.018 2.43138C109.336 5.12272 108.532 10.2896 111.224 13.9719ZM115.08 11.5483C116.231 13.123 118.441 13.4666 120.016 12.3156C121.59 11.1646 121.934 8.95492 120.783 7.38013C119.632 5.80535 117.422 5.46179 115.848 6.61279C114.273 7.76379 113.929 9.97347 115.08 11.5483Z" fill="url(#paint11_radial)"/>
<g filter="url(#filter1_d)">
<g filter="url(#filter2_i)">
<rect x="90.1313" y="60.3435" width="29.7934" height="26.483" rx="3" fill="url(#paint12_linear)"/>
</g>
<path fill-rule="evenodd" clip-rule="evenodd" d="M106.621 73.8757C106.581 73.7282 106.659 73.5756 106.797 73.5093C108.017 72.9211 108.859 71.6725 108.859 70.2273C108.859 68.2162 107.228 66.5859 105.217 66.5859C103.206 66.5859 101.576 68.2162 101.576 70.2273C101.576 71.6725 102.418 72.9211 103.638 73.5093C103.775 73.5756 103.854 73.7282 103.814 73.8757L102.166 79.9932C102.114 80.1838 102.258 80.3712 102.455 80.3712H107.979C108.177 80.3712 108.32 80.1838 108.269 79.9932L106.621 73.8757Z" fill="#81A5FD"/>
<g filter="url(#filter3_i)">
<path fill-rule="evenodd" clip-rule="evenodd" d="M95.704 60.3435C95.6674 60.0069 95.6487 59.6651 95.6487 59.3188C95.6487 54.1387 99.848 49.9394 105.028 49.9394C110.208 49.9394 114.407 54.1387 114.407 59.3188C114.407 59.6651 114.389 60.0069 114.352 60.3435H109.888C109.957 60.0128 109.994 59.6701 109.994 59.3188C109.994 56.5764 107.77 54.3533 105.028 54.3533C102.286 54.3533 100.062 56.5764 100.062 59.3188C100.062 59.6701 100.099 60.0128 100.168 60.3435H95.704Z" fill="url(#paint13_linear)"/>
</g>
</g>
<defs>
<filter id="filter0_f" x="61" y="111.5" width="88" height="16" filterUnits="userSpaceOnUse" color-interpolation-filters="sRGB">
<feFlood flood-opacity="0" result="BackgroundImageFix"/>
<feBlend mode="normal" in="SourceGraphic" in2="BackgroundImageFix" result="shape"/>
<feGaussianBlur stdDeviation="2" result="effect1_foregroundBlur"/>
</filter>
<filter id="filter1_d" x="79.1313" y="42.9394" width="51.7934" height="58.887" filterUnits="userSpaceOnUse" color-interpolation-filters="sRGB">
<feFlood flood-opacity="0" result="BackgroundImageFix"/>
<feColorMatrix in="SourceAlpha" type="matrix" values="0 0 0 0 0 0 0 0 0 0 0 0 0 0 0 0 0 0 127 0"/>
<feOffset dy="4"/>
<feGaussianBlur stdDeviation="5.5"/>
<feColorMatrix type="matrix" values="0 0 0 0 0.278431 0 0 0 0 0.443137 0 0 0 0 0.972549 0 0 0 0.3 0"/>
<feBlend mode="normal" in2="BackgroundImageFix" result="effect1_dropShadow"/>
<feBlend mode="normal" in="SourceGraphic" in2="effect1_dropShadow" result="shape"/>
</filter>
<filter id="filter2_i" x="90.1313" y="60.3435" width="29.7934" height="27.483" filterUnits="userSpaceOnUse" color-interpolation-filters="sRGB">
<feFlood flood-opacity="0" result="BackgroundImageFix"/>
<feBlend mode="normal" in="SourceGraphic" in2="BackgroundImageFix" result="shape"/>
<feColorMatrix in="SourceAlpha" type="matrix" values="0 0 0 0 0 0 0 0 0 0 0 0 0 0 0 0 0 0 127 0" result="hardAlpha"/>
<feOffset dy="1"/>
<feGaussianBlur stdDeviation="0.5"/>
<feComposite in2="hardAlpha" operator="arithmetic" k2="-1" k3="1"/>
<feColorMatrix type="matrix" values="0 0 0 0 1 0 0 0 0 1 0 0 0 0 1 0 0 0 0.24 0"/>
<feBlend mode="normal" in2="shape" result="effect1_innerShadow"/>
</filter>
<filter id="filter3_i" x="95.6487" y="49.9394" width="18.7588" height="11.404" filterUnits="userSpaceOnUse" color-interpolation-filters="sRGB">
<feFlood flood-opacity="0" result="BackgroundImageFix"/>
<feBlend mode="normal" in="SourceGraphic" in2="BackgroundImageFix" result="shape"/>
<feColorMatrix in="SourceAlpha" type="matrix" values="0 0 0 0 0 0 0 0 0 0 0 0 0 0 0 0 0 0 127 0" result="hardAlpha"/>
<feOffset dy="1"/>
<feGaussianBlur stdDeviation="0.5"/>
<feComposite in2="hardAlpha" operator="arithmetic" k2="-1" k3="1"/>
<feColorMatrix type="matrix" values="0 0 0 0 1 0 0 0 0 1 0 0 0 0 1 0 0 0 0.24 0"/>
<feBlend mode="normal" in2="shape" result="effect1_innerShadow"/>
</filter>
<linearGradient id="paint0_linear" x1="104" y1="92" x2="104" y2="133.875" gradientUnits="userSpaceOnUse">
<stop stop-color="#E5EBFC"/>
<stop offset="1" stop-color="#F5F7FA" stop-opacity="0"/>
</linearGradient>
<linearGradient id="paint1_linear" x1="165.42" y1="14.2123" x2="165.044" y2="65.372" gradientUnits="userSpaceOnUse">
<stop stop-color="#9FC0FF"/>
<stop offset="1" stop-color="#79A4F6" stop-opacity="0"/>
</linearGradient>
<linearGradient id="paint2_linear" x1="46.833" y1="-4.08956" x2="46.5756" y2="30.9249" gradientUnits="userSpaceOnUse">
<stop stop-color="#9FC0FF"/>
<stop offset="1" stop-color="#79A4F6" stop-opacity="0"/>
</linearGradient>
<radialGradient id="paint3_radial" cx="0" cy="0" r="1" gradientUnits="userSpaceOnUse" gradientTransform="translate(105 119.5) rotate(90) scale(5.5 55)">
<stop stop-color="#7AA7FF"/>
<stop offset="1" stop-color="#D0E0FF" stop-opacity="0"/>
</radialGradient>
<linearGradient id="paint4_linear" x1="110.187" y1="23.1016" x2="104.359" y2="103.312" gradientUnits="userSpaceOnUse">
<stop stop-color="#5077F9"/>
<stop offset="1" stop-color="#658BEF" stop-opacity="0"/>
</linearGradient>
<linearGradient id="paint5_linear" x1="157.239" y1="48" x2="70.7722" y2="171.645" gradientUnits="userSpaceOnUse">
<stop stop-color="#DDE5FF"/>
<stop offset="0.764778" stop-color="#B5C9F8"/>
<stop offset="1" stop-color="#AAC1F6"/>
</linearGradient>
<linearGradient id="paint6_linear" x1="145.917" y1="33.9921" x2="140.437" y2="39.2326" gradientUnits="userSpaceOnUse">
<stop stop-color="#FAFBFF"/>
<stop offset="0.764778" stop-color="#B5C9F8"/>
<stop offset="1" stop-color="#AAC1F6"/>
</linearGradient>
<linearGradient id="paint7_linear" x1="137.917" y1="33.9921" x2="132.437" y2="39.2326" gradientUnits="userSpaceOnUse">
<stop stop-color="#FAFBFF"/>
<stop offset="0.764778" stop-color="#B5C9F8"/>
<stop offset="1" stop-color="#AAC1F6"/>
</linearGradient>
<linearGradient id="paint8_linear" x1="130.397" y1="33.9921" x2="124.997" y2="40.4462" gradientUnits="userSpaceOnUse">
<stop stop-color="#FAFBFF"/>
<stop offset="0.764778" stop-color="#B5C9F8"/>
<stop offset="1" stop-color="#AAC1F6"/>
</linearGradient>
<linearGradient id="paint9_linear" x1="98.6833" y1="14.4727" x2="107.715" y2="26.8102" gradientUnits="userSpaceOnUse">
<stop stop-color="#9FC0FF"/>
<stop offset="0.672113" stop-color="#3E67F8"/>
<stop offset="1" stop-color="#79A4F6"/>
</linearGradient>
<linearGradient id="paint10_linear" x1="103.029" y1="19.8171" x2="102.698" y2="27.263" gradientUnits="userSpaceOnUse">
<stop stop-color="#9FC0FF"/>
<stop offset="0.672113" stop-color="#6184FF"/>
<stop offset="1" stop-color="#79A4F6"/>
</linearGradient>
<radialGradient id="paint11_radial" cx="0" cy="0" r="1" gradientUnits="userSpaceOnUse" gradientTransform="translate(110.548 2.73065) rotate(44.0318) scale(20.3145 20.3158)">
<stop stop-color="#9FC0FF"/>
<stop offset="0.824843" stop-color="#3E67F8"/>
<stop offset="1" stop-color="#79A4F6"/>
</radialGradient>
<linearGradient id="paint12_linear" x1="92.3383" y1="64.356" x2="116.361" y2="95.293" gradientUnits="userSpaceOnUse">
<stop stop-color="white"/>
<stop offset="0.906503" stop-color="white" stop-opacity="0.5"/>
</linearGradient>
<linearGradient id="paint13_linear" x1="97.9344" y1="51.5" x2="112.687" y2="68.3723" gradientUnits="userSpaceOnUse">
<stop stop-color="white"/>
<stop offset="0.906503" stop-color="white" stop-opacity="0.5"/>
</linearGradient>
</defs>
</svg>
