<svg width="208" height="132" viewBox="0 0 208 132" fill="none" xmlns="http://www.w3.org/2000/svg">
<path fill-rule="evenodd" clip-rule="evenodd" d="M207.98 131.5C207.993 131.167 208 130.834 208 130.5C208 102.886 161.438 80.5 104 80.5C46.5624 80.5 0 102.886 0 130.5C0 130.834 0.00681624 131.167 0.0203855 131.5H207.98Z" fill="url(#paint0_linear)"/>
<circle cx="45.9914" cy="32.2046" r="3" stroke="#8FB0FE" stroke-width="2"/>
<circle cx="160.236" cy="39.6192" r="3" stroke="#B5BCF6" stroke-opacity="0.4" stroke-width="2"/>
<path d="M160.89 64.8934L153.884 49.5974L143.743 68.6449L159.19 67.7226C160.594 67.6389 161.475 66.1715 160.89 64.8934Z" fill="url(#paint1_linear)"/>
<path d="M153.609 49.5975L107.566 39.8404L106.916 101.194L148.848 103.112L153.609 49.5975Z" fill="url(#paint2_linear)"/>
<path opacity="0.5" d="M107.567 39.8681L59.6058 48.2271L63.731 104.458L107.567 96.4591V39.8681Z" fill="url(#paint3_linear)"/>
<path d="M106.556 115.101V57.5861L59.6553 48.354L63.7219 106.378L106.556 115.101Z" fill="url(#paint4_linear)"/>
<g filter="url(#filter0_i)">
<path d="M106.554 57.58L59.6869 48.2426L43.9492 71.8805C43.2026 73.002 43.7559 74.5259 45.0481 74.9071L88.2152 87.6414C89.116 87.9072 90.0804 87.5103 90.5332 86.6875L106.554 57.58Z" fill="url(#paint5_linear)"/>
</g>
<path d="M153.466 50.015L106.554 57.6341V115.114L148.903 105.077L153.466 50.015Z" fill="url(#paint6_linear)"/>
<path d="M113.606 72.1058C113.606 71.6106 113.968 71.1899 114.458 71.1168L142.321 66.9558C142.956 66.8608 143.515 67.3815 143.465 68.0223L143.225 71.1172C143.189 71.5804 142.838 71.9579 142.379 72.0282L114.757 76.2575C114.151 76.3503 113.606 75.8817 113.606 75.2691V72.1058Z" fill="url(#paint7_linear)"/>
<path d="M113.606 84.8001C113.606 84.3028 113.971 83.8812 114.463 83.8103L134.598 80.9097C135.231 80.8185 135.786 81.337 135.738 81.9749L135.48 85.3765C135.445 85.842 135.092 86.2212 134.631 86.2901L114.753 89.2578C114.149 89.348 113.606 88.8798 113.606 88.2687V84.8001Z" fill="url(#paint8_linear)"/>
<rect x="40.0309" y="96.14" width="1.96047" height="11.7628" rx="0.980234" fill="url(#paint9_linear)"/>
<path d="M34 99.4274L41.2632 81.5V103.309L34 99.4274Z" fill="url(#paint10_linear)"/>
<g filter="url(#filter1_i)">
<path d="M48.5263 99.4274L41.2632 81.5V103.309L48.5263 99.4274Z" fill="url(#paint11_linear)"/>
</g>
<path d="M125.182 30.4102L123.769 18.3308L160.235 7.64004L125.182 30.4102Z" fill="url(#paint12_linear)"/>
<g filter="url(#filter2_i)">
<path d="M140.785 33.701L160.236 7.62944L127.884 22.7375L140.785 33.701Z" fill="url(#paint13_linear)"/>
</g>
<g filter="url(#filter3_i)">
<path d="M160.217 7.65562L114.999 8.75157L123.769 18.3307L160.217 7.65562Z" fill="url(#paint14_linear)"/>
</g>
<path d="M127.894 22.7318L125.201 30.391L132.578 26.7847L127.894 22.7318Z" fill="url(#paint15_linear)"/>
<path d="M96.324 55.0118C102.167 43.9808 114.141 41.5559 118.15 44.2434C122.095 46.8878 120.52 53.0881 115.142 53.1126C111.112 53.131 105.325 45.7028 114.462 37.0314C117.244 34.3921 120.21 32.8083 124.315 31.6354" stroke="url(#paint16_linear)" stroke-dasharray="1 1"/>
<defs>
<filter id="filter0_i" x="43.6129" y="48.2426" width="62.9408" height="40.4808" filterUnits="userSpaceOnUse" color-interpolation-filters="sRGB">
<feFlood flood-opacity="0" result="BackgroundImageFix"/>
<feBlend mode="normal" in="SourceGraphic" in2="BackgroundImageFix" result="shape"/>
<feColorMatrix in="SourceAlpha" type="matrix" values="0 0 0 0 0 0 0 0 0 0 0 0 0 0 0 0 0 0 127 0" result="hardAlpha"/>
<feOffset dy="1"/>
<feGaussianBlur stdDeviation="0.5"/>
<feComposite in2="hardAlpha" operator="arithmetic" k2="-1" k3="1"/>
<feColorMatrix type="matrix" values="0 0 0 0 1 0 0 0 0 1 0 0 0 0 1 0 0 0 0.24 0"/>
<feBlend mode="normal" in2="shape" result="effect1_innerShadow"/>
</filter>
<filter id="filter1_i" x="41.2632" y="81.5" width="7.26315" height="22.8093" filterUnits="userSpaceOnUse" color-interpolation-filters="sRGB">
<feFlood flood-opacity="0" result="BackgroundImageFix"/>
<feBlend mode="normal" in="SourceGraphic" in2="BackgroundImageFix" result="shape"/>
<feColorMatrix in="SourceAlpha" type="matrix" values="0 0 0 0 0 0 0 0 0 0 0 0 0 0 0 0 0 0 127 0" result="hardAlpha"/>
<feOffset dy="1"/>
<feGaussianBlur stdDeviation="0.5"/>
<feComposite in2="hardAlpha" operator="arithmetic" k2="-1" k3="1"/>
<feColorMatrix type="matrix" values="0 0 0 0 1 0 0 0 0 1 0 0 0 0 1 0 0 0 0.24 0"/>
<feBlend mode="normal" in2="shape" result="effect1_innerShadow"/>
</filter>
<filter id="filter2_i" x="127.884" y="7.62944" width="32.3522" height="26.353" filterUnits="userSpaceOnUse" color-interpolation-filters="sRGB">
<feFlood flood-opacity="0" result="BackgroundImageFix"/>
<feBlend mode="normal" in="SourceGraphic" in2="BackgroundImageFix" result="shape"/>
<feColorMatrix in="SourceAlpha" type="matrix" values="0 0 0 0 0 0 0 0 0 0 0 0 0 0 0 0 0 0 127 0" result="hardAlpha"/>
<feOffset dy="0.281481"/>
<feGaussianBlur stdDeviation="0.140741"/>
<feComposite in2="hardAlpha" operator="arithmetic" k2="-1" k3="1"/>
<feColorMatrix type="matrix" values="0 0 0 0 1 0 0 0 0 1 0 0 0 0 1 0 0 0 0.24 0"/>
<feBlend mode="normal" in2="shape" result="effect1_innerShadow"/>
</filter>
<filter id="filter3_i" x="114.999" y="7.65562" width="45.2174" height="10.9565" filterUnits="userSpaceOnUse" color-interpolation-filters="sRGB">
<feFlood flood-opacity="0" result="BackgroundImageFix"/>
<feBlend mode="normal" in="SourceGraphic" in2="BackgroundImageFix" result="shape"/>
<feColorMatrix in="SourceAlpha" type="matrix" values="0 0 0 0 0 0 0 0 0 0 0 0 0 0 0 0 0 0 127 0" result="hardAlpha"/>
<feOffset dy="0.281481"/>
<feGaussianBlur stdDeviation="0.140741"/>
<feComposite in2="hardAlpha" operator="arithmetic" k2="-1" k3="1"/>
<feColorMatrix type="matrix" values="0 0 0 0 1 0 0 0 0 1 0 0 0 0 1 0 0 0 0.24 0"/>
<feBlend mode="normal" in2="shape" result="effect1_innerShadow"/>
</filter>
<linearGradient id="paint0_linear" x1="104" y1="81.5" x2="104" y2="123.375" gradientUnits="userSpaceOnUse">
<stop stop-color="#E5EBFC"/>
<stop offset="1" stop-color="#F5F7FA" stop-opacity="0"/>
</linearGradient>
<linearGradient id="paint1_linear" x1="162.106" y1="57.46" x2="149.059" y2="68.8898" gradientUnits="userSpaceOnUse">
<stop stop-color="#CCD2FF"/>
<stop offset="0.764778" stop-color="#B2BCF7"/>
<stop offset="1" stop-color="#BAC4F6"/>
</linearGradient>
<linearGradient id="paint2_linear" x1="112.08" y1="35.964" x2="207.305" y2="114.89" gradientUnits="userSpaceOnUse">
<stop stop-color="#6A93FC"/>
<stop offset="1" stop-color="#D1E4FF"/>
</linearGradient>
<linearGradient id="paint3_linear" x1="129.939" y1="109.655" x2="55.9575" y2="56.1021" gradientUnits="userSpaceOnUse">
<stop stop-color="#9FC0FF"/>
<stop offset="1" stop-color="#3E67F8"/>
</linearGradient>
<linearGradient id="paint4_linear" x1="77.754" y1="124.385" x2="127.27" y2="56.1081" gradientUnits="userSpaceOnUse">
<stop stop-color="#DBE7FF"/>
<stop offset="1" stop-color="#3E67F8"/>
</linearGradient>
<linearGradient id="paint5_linear" x1="74.4995" y1="107.968" x2="35.3763" y2="62.5149" gradientUnits="userSpaceOnUse">
<stop stop-color="#C2D2FD"/>
<stop offset="1" stop-color="#E8F0FF"/>
</linearGradient>
<linearGradient id="paint6_linear" x1="167.432" y1="31.5494" x2="87.685" y2="113.76" gradientUnits="userSpaceOnUse">
<stop stop-color="#EFF3FF"/>
<stop offset="0.764778" stop-color="#B5C9F8"/>
<stop offset="1" stop-color="#AAC1F6"/>
</linearGradient>
<linearGradient id="paint7_linear" x1="110.61" y1="72.1755" x2="207.241" y2="72.7024" gradientUnits="userSpaceOnUse">
<stop stop-color="white"/>
<stop offset="0.906503" stop-color="white" stop-opacity="0"/>
</linearGradient>
<linearGradient id="paint8_linear" x1="110.517" y1="84.9201" x2="210.155" y2="85.4492" gradientUnits="userSpaceOnUse">
<stop stop-color="white"/>
<stop offset="0.906503" stop-color="white" stop-opacity="0"/>
</linearGradient>
<linearGradient id="paint9_linear" x1="40.0309" y1="103.142" x2="41.9914" y2="103.142" gradientUnits="userSpaceOnUse">
<stop stop-color="#9FC0FF"/>
<stop offset="0.672113" stop-color="#3E67F8"/>
<stop offset="1" stop-color="#79A4F6"/>
</linearGradient>
<linearGradient id="paint10_linear" x1="37.3189" y1="82.2035" x2="37.3189" y2="104.716" gradientUnits="userSpaceOnUse">
<stop stop-color="#5077F9"/>
<stop offset="1" stop-color="#98B5FF"/>
</linearGradient>
<linearGradient id="paint11_linear" x1="39.8957" y1="82.9766" x2="45.9988" y2="80.6303" gradientUnits="userSpaceOnUse">
<stop stop-color="#C2D2FD"/>
<stop offset="1" stop-color="#E8F0FF"/>
</linearGradient>
<linearGradient id="paint12_linear" x1="146.238" y1="0.964005" x2="136.42" y2="37.5864" gradientUnits="userSpaceOnUse">
<stop stop-color="#5077F9"/>
<stop offset="1" stop-color="#8FAFFF"/>
</linearGradient>
<linearGradient id="paint13_linear" x1="138.547" y1="48.1485" x2="114.665" y2="23.4838" gradientUnits="userSpaceOnUse">
<stop stop-color="#C2D2FD"/>
<stop offset="1" stop-color="#E8F0FF"/>
</linearGradient>
<linearGradient id="paint14_linear" x1="128.245" y1="18.5095" x2="123.138" y2="4.96905" gradientUnits="userSpaceOnUse">
<stop stop-color="#A8C0FF"/>
<stop offset="1" stop-color="#E8F0FF"/>
</linearGradient>
<linearGradient id="paint15_linear" x1="130.544" y1="25.3556" x2="121.57" y2="34.0517" gradientUnits="userSpaceOnUse">
<stop stop-color="#5077F9"/>
<stop offset="1" stop-color="#8FAFFF"/>
</linearGradient>
<linearGradient id="paint16_linear" x1="133.265" y1="26.6634" x2="102.762" y2="51.6475" gradientUnits="userSpaceOnUse">
<stop stop-color="#3E67F8"/>
<stop offset="0.448111" stop-color="#9EB3FC"/>
<stop offset="1" stop-color="#FCFDFF"/>
</linearGradient>
</defs>
</svg>
