<svg width="102" height="23" viewBox="0 0 102 23" fill="none" xmlns="http://www.w3.org/2000/svg">
<path fill-rule="evenodd" clip-rule="evenodd" d="M0 17.6406V4.41022H2.24835V15.4356H11.2423C13.7261 15.4356 15.7393 13.4611 15.7393 11.0254C15.7393 8.5897 13.7261 6.61518 11.2423 6.61518H8.99399V4.41022H11.2423C14.968 4.41022 17.9877 7.37186 17.9877 11.0254C17.9877 14.6786 14.968 17.6406 11.2423 17.6406H0ZM4.49699 22.0508V17.6406H6.74534V19.8455H11.2423C16.2096 19.8455 20.2363 15.8968 20.2363 11.0254C20.2363 6.15401 16.2096 2.20525 11.2423 2.20525H6.74534V11.0254H8.85355V13.2306H4.49699V0H11.2423C17.4515 0 22.4847 4.93617 22.4847 11.0254C22.4847 17.1146 17.4515 22.0508 11.2423 22.0508H4.49699Z" fill="white"/>
<path fill-rule="evenodd" clip-rule="evenodd" d="M71.2132 7.58849C72.2103 6.44922 72.9749 4.81976 73.5067 2.69982C73.5226 2.63649 73.4745 2.57434 73.4091 2.57434H71.6542C71.6084 2.57434 71.5686 2.606 71.5574 2.65027C71.1238 4.36886 70.5606 5.69869 69.869 6.63978C69.1877 7.58292 68.1223 8.49411 66.674 9.37422C66.6391 9.39532 66.6177 9.43285 66.6177 9.47331V10.5076C66.6177 10.5915 66.7054 10.6481 66.7822 10.6138C68.7462 9.7398 70.2235 8.73129 71.2132 7.58849Z" fill="white"/>
<path fill-rule="evenodd" clip-rule="evenodd" d="M80.0522 9.7864C80.0522 9.70578 79.9866 9.64011 79.9059 9.64011H69.1796C69.099 9.64011 69.0333 9.70578 69.0333 9.7864V10.8685C69.0333 10.9491 69.099 11.0148 69.1796 11.0148H71.7396C71.6305 12.9248 71.2371 14.4476 70.559 15.5833C69.9489 16.6077 68.9409 17.5693 67.5393 18.4693C67.4947 18.4981 67.4669 18.5476 67.4669 18.6004V19.6426C67.4669 19.7578 67.5876 19.8338 67.6917 19.7848C69.6446 18.8522 71.0623 17.7815 71.9395 16.571C72.8959 15.2676 73.4652 13.4153 73.6467 11.0148H78.2674V15.2365H78.2656V17.4655C78.2656 17.7962 77.9543 18.1067 77.6429 18.1269H76.0648C76.0132 18.1269 75.9765 18.1782 75.9935 18.2272L76.4635 19.5825C76.4843 19.6432 76.5412 19.6839 76.6054 19.6839H78.7614C79.4714 19.6839 80.0522 19.1026 80.0522 18.3925V15.2365V9.7864Z" fill="white"/>
<path fill-rule="evenodd" clip-rule="evenodd" d="M82.8354 9.37457C81.3985 8.50707 80.3334 7.59559 79.6409 6.63984C78.9362 5.67354 78.368 4.34371 77.9341 2.65004C77.9229 2.60577 77.8831 2.5744 77.8376 2.5744H76.0821C76.0167 2.5744 75.9687 2.63685 75.9845 2.69988C76.516 4.81982 77.2809 6.44928 78.2783 7.58855C79.268 8.73193 80.7512 9.74045 82.7278 10.6144C82.8046 10.6484 82.8914 10.5918 82.8914 10.508V9.47337C82.8914 9.43291 82.87 9.39539 82.8354 9.37457Z" fill="white"/>
<path fill-rule="evenodd" clip-rule="evenodd" d="M90.5701 5.26509H88.5748V2.68077C88.5748 2.60073 88.51 2.53564 88.4294 2.53564H87.0306C86.9503 2.53564 86.8855 2.60073 86.8855 2.68077V5.26509H84.7477C84.6674 5.26509 84.6026 5.33018 84.6026 5.41051V6.40877C84.6026 6.48909 84.6674 6.55389 84.7477 6.55389H86.8832C86.8832 6.55389 86.5862 9.21678 84.0426 13.3458C83.9576 13.4845 83.9113 13.6437 83.9113 13.8061V15.3403C83.9113 15.4312 84.023 15.4734 84.0833 15.4063C84.9529 14.4297 86.3006 12.4285 86.884 10.8618L86.8855 19.601C86.8855 19.6819 86.9503 19.7467 87.0306 19.7467H88.4294C88.51 19.7467 88.5748 19.6819 88.5748 19.601V10.838C88.9621 11.7938 89.6217 12.8041 90.3121 13.6079C90.3628 13.6669 90.4596 13.6317 90.4596 13.5534V11.5886C90.4596 11.5065 90.4326 11.427 90.3839 11.3605C89.8753 10.6657 88.7768 8.53457 88.6636 6.55389H90.5701C90.6501 6.55389 90.7152 6.48909 90.7152 6.40877V5.41051C90.7152 5.33018 90.6501 5.26509 90.5701 5.26509Z" fill="white"/>
<path fill-rule="evenodd" clip-rule="evenodd" d="M39.9537 11.6136H38.5499C38.4696 11.6136 38.4042 11.679 38.4042 11.7593V19.6832H40.0994V11.7593C40.0994 11.679 40.034 11.6136 39.9537 11.6136Z" fill="white"/>
<path fill-rule="evenodd" clip-rule="evenodd" d="M30.8875 6.27204C30.9053 6.32511 30.9549 6.36117 31.0109 6.36117H32.3897C32.4562 6.36117 32.5034 6.29579 32.482 6.23246L31.2914 2.66014C31.2736 2.60707 31.2237 2.57101 31.168 2.57101H29.7892C29.7227 2.57101 29.6758 2.63639 29.6966 2.69972L30.8875 6.27204Z" fill="white"/>
<path fill-rule="evenodd" clip-rule="evenodd" d="M31.2827 7.27982H29.9042C29.8376 7.27982 29.7904 7.34519 29.8115 7.40823L31.0024 10.9808C31.02 11.0339 31.0698 11.07 31.1258 11.07H32.5043C32.5712 11.07 32.6181 11.0046 32.597 10.9413L31.4061 7.36894C31.3885 7.31588 31.3387 7.27982 31.2827 7.27982Z" fill="white"/>
<path fill-rule="evenodd" clip-rule="evenodd" d="M32.5367 11.9886H31.1576C31.0875 11.9886 31.0306 12.0444 31.0283 12.1147C30.9014 15.8969 29.5803 18.8788 29.2628 19.544C29.232 19.6091 29.2792 19.6836 29.3511 19.6836H31.0588C31.1124 19.6836 31.1602 19.6519 31.1799 19.6021C31.3783 19.0981 32.415 16.2916 32.6346 12.0924C32.6375 12.0364 32.5927 11.9886 32.5367 11.9886Z" fill="white"/>
<path fill-rule="evenodd" clip-rule="evenodd" d="M36.5776 11.6331H35.2709C35.1903 11.6331 35.1249 11.6984 35.1249 11.7788V15.0711C35.1249 15.0711 35.1762 17.2957 33.4723 18.3045V19.7487C33.4723 19.7487 36.7236 18.737 36.7236 15.0711V11.7788C36.7236 11.6984 36.6579 11.6331 36.5776 11.6331Z" fill="white"/>
<path fill-rule="evenodd" clip-rule="evenodd" d="M46.5696 17.0327L45.2717 16.384V17.7985C45.2248 18.4558 44.8346 18.3822 44.3019 18.3828C44.0767 18.3834 43.7023 18.3822 43.4948 18.3828C43.4118 18.3834 43.3446 18.3168 43.3444 18.2339L43.3294 11.6659C43.3291 11.6131 43.286 11.5697 43.2327 11.57L42.0166 11.5727C41.9351 11.573 41.8694 11.6392 41.8697 11.7204L41.8861 19.0474C41.887 19.3998 42.1731 19.6848 42.5255 19.6839L42.8612 19.683H42.8621L43.3476 19.6819V19.6807C43.7255 19.6789 44.3036 19.6775 45.0154 19.6757C46.2949 19.6728 46.5772 18.9322 46.5754 18.0788C46.5754 18.055 46.5731 18.0331 46.5696 18.0114V17.0327Z" fill="white"/>
<path fill-rule="evenodd" clip-rule="evenodd" d="M33.7142 10.3736C33.6992 10.4126 33.7238 10.4566 33.7602 10.4566H34.5632L34.562 10.4589H43.2687L43.2675 10.4566H44.9008C44.9374 10.4566 44.9618 10.4126 44.9468 10.3736L42.9893 6.68635C42.9585 6.6283 42.8981 6.59224 42.8325 6.59224H41.2335C41.1734 6.59224 41.135 6.65615 41.1631 6.70921L42.3645 8.98102H36.4117L38.346 5.3228H44.6041C44.6654 5.3228 44.7205 5.28439 44.7413 5.22693L45.116 4.20287C45.1509 4.1073 45.0805 4.00644 44.9788 4.00644H40.1745V2.67866C40.1745 2.59862 40.1097 2.53354 40.0297 2.53354H38.4741C38.3941 2.53354 38.3293 2.59862 38.3293 2.67866V4.00644H33.462C33.3811 4.00644 33.3157 4.07182 33.3157 4.15244V5.1765C33.3157 5.25742 33.3811 5.3228 33.462 5.3228H36.3955L33.7142 10.3736Z" fill="white"/>
<path fill-rule="evenodd" clip-rule="evenodd" d="M64.372 9.3206C64.4338 9.3206 64.4889 9.2822 64.5103 9.22415L64.81 8.40443C64.8296 8.35108 64.79 8.29449 64.7332 8.29449H48.5116C48.4303 8.29449 48.3644 8.36046 48.3644 8.44167V9.17343C48.3644 9.25464 48.4303 9.3206 48.5116 9.3206H64.372Z" fill="white"/>
<path fill-rule="evenodd" clip-rule="evenodd" d="M51.4162 5.74753H60.8119C60.8989 5.74753 60.9766 5.693 61.0065 5.6115L61.212 5.04978C61.2326 4.99378 61.1912 4.93456 61.1317 4.93456H51.4162V4.08259H61.7682V5.74753C61.7556 6.05741 61.689 6.277 61.568 6.4057C61.4349 6.53499 61.217 6.59949 60.9142 6.59949H51.4162V5.74753ZM50.1078 7.54817H61.2056C61.9318 7.54817 62.4463 7.40627 62.7491 7.12189C63.0517 6.8384 63.2033 6.34762 63.2033 5.65075V3.27897C63.2033 3.19893 63.1382 3.13385 63.0584 3.13385H50.1078C50.0277 3.13385 49.9626 3.19893 49.9626 3.27897V7.40305C49.9626 7.48309 50.0277 7.54817 50.1078 7.54817Z" fill="white"/>
<path fill-rule="evenodd" clip-rule="evenodd" d="M51.5253 12.1863H55.7443V11.0163H51.5253V12.1863ZM51.5253 14.3048H55.7443V13.1347H51.5253V14.3048ZM57.4401 13.1347H60.7266C60.8095 13.1347 60.884 13.0828 60.9124 13.0051L61.1725 12.2942C61.1918 12.2417 61.1528 12.1863 61.0968 12.1863H57.4401V11.0159H61.6225V13.5097C61.6225 13.8324 61.5615 13.95 61.441 14.0919C61.3197 14.2341 61.1018 14.3048 60.7873 14.3048L57.4401 14.3241V13.1347ZM64.7533 18.3714H57.4401V17.3438H63.1884C63.2807 17.3438 63.3625 17.2846 63.3915 17.1969L63.668 16.3532C63.6856 16.2983 63.6451 16.2421 63.5874 16.2421H57.4401V15.2532H61.0784C61.8046 15.2532 62.3191 15.0984 62.6222 14.7885C62.9248 14.4789 63.0761 13.8413 63.0761 13.1057V10.2135C63.0761 10.1329 63.0107 10.0672 62.9301 10.0672H50.2178C50.1371 10.0672 50.0718 10.1329 50.0718 10.2135V15.1069C50.0718 15.1878 50.1371 15.2532 50.2178 15.2532H55.7444V16.2421H49.6009C49.52 16.2421 49.4543 16.3074 49.4543 16.3884V17.1975C49.4543 17.2784 49.52 17.3438 49.6009 17.3438H55.7444V18.3714H48.4748C48.3939 18.3714 48.3282 18.4371 48.3282 18.518V19.3658C48.3282 19.4467 48.3939 19.5124 48.4748 19.5124H64.3405C64.4326 19.5124 64.5147 19.4532 64.5434 19.3655L64.8339 18.4828C64.8521 18.428 64.8111 18.3714 64.7533 18.3714Z" fill="white"/>
<path fill-rule="evenodd" clip-rule="evenodd" d="M101.917 8.21008H94.085V4.81835H97.6142C98.5316 4.81835 99.4483 4.74741 100.352 4.58909C100.796 4.5114 101.237 4.41377 101.556 4.2965C101.589 4.28419 101.61 4.25282 101.61 4.21793V2.9781C101.61 2.92123 101.555 2.88165 101.501 2.89924C101.162 3.00771 100.763 3.10182 100.362 3.18127C99.2504 3.40056 98.1194 3.50171 96.9869 3.50171H92.3442C92.2621 3.50171 92.1961 3.56797 92.1961 3.64976V13.7045C92.1961 14.9176 92.0929 15.8989 91.8874 16.647C91.7317 17.2278 91.4767 17.7576 91.1254 18.2384C91.1128 18.2557 91.1061 18.2756 91.1061 18.297V19.5873C91.1061 19.667 91.1952 19.7169 91.2626 19.6741C92.2116 19.0687 92.9044 18.3246 93.3401 17.441C93.8487 16.4342 94.0967 15.0402 94.085 13.2594V9.50708H97.4026V19.6014C97.4026 19.6817 97.4674 19.7471 97.5477 19.7471H99.0915C99.1719 19.7471 99.2367 19.6817 99.2367 19.6014V9.50708H101.503C101.538 9.50708 101.569 9.48539 101.581 9.45255L101.995 8.32207C102.015 8.26754 101.974 8.21008 101.917 8.21008Z" fill="white"/>
</svg>
